HIERARCHY
ROOT Hips
{
  OFFSET 0.000000 0.000000 0.000000
  CHANNELS 6 Xposition Yposition Zposition Zrotation Xrotation Yrotation
  JOINT RightUpLeg
  {
    OFFSET -6.492147 -8.731347 1.335702
    CHANNELS 3 Zrotation Xrotation Yrotation
    JOINT RightLeg
    {
      OFFSET -8.811483 -27.024794 27.954018
      CHANNELS 3 Zrotation Xrotation Yrotation
      JOINT RightFoot
      {
        OFFSET 2.479477 -38.081219 -18.771446
        CHANNELS 3 Zrotation Xrotation Yrotation
        JOINT RightToeBase
        {
          OFFSET -6.592765 -6.586826 10.472497
          CHANNELS 3 Zrotation Xrotation Yrotation
          End Site
          {
            OFFSET 0.000000 4.000000 0.000000
          }
        }
      }
    }
  }
  JOINT LeftUpLeg
  {
    OFFSET 5.773605 -8.721775 -0.735183
    CHANNELS 3 Zrotation Xrotation Yrotation
    JOINT LeftLeg
    {
      OFFSET 17.640406 -29.150946 22.681658
      CHANNELS 3 Zrotation Xrotation Yrotation
      JOINT LeftFoot
      {
        OFFSET -0.779080 -36.097401 -22.382191
        CHANNELS 3 Zrotation Xrotation Yrotation
        JOINT LeftToeBase
        {
          OFFSET 9.300282 -6.055043 8.474888
          CHANNELS 3 Zrotation Xrotation Yrotation
          End Site
          {
            OFFSET 0.000000 4.000000 0.000000
          }
        }
      }
    }
  }
  JOINT Spine
  {
    OFFSET -0.708008 11.718660 -4.745970
    CHANNELS 3 Zrotation Xrotation Yrotation
    JOINT Spine1
    {
      OFFSET 1.721553 10.787725 8.172941
      CHANNELS 3 Zrotation Xrotation Yrotation
      JOINT Spine2
      {
        OFFSET 1.146763 3.471112 4.288814
        CHANNELS 3 Zrotation Xrotation Yrotation
        JOINT Neck
        {
          OFFSET 2.442182 20.212067 8.902873
          CHANNELS 3 Zrotation Xrotation Yrotation
          JOINT Head
          {
            OFFSET 1.260641 5.482006 8.392384
            CHANNELS 3 Zrotation Xrotation Yrotation
            End Site
            {
              OFFSET 0.000000 4.000000 0.000000
            }
          }
        }
        JOINT RightShoulder
        {
          OFFSET -6.373710 11.362637 5.886851
          CHANNELS 3 Zrotation Xrotation Yrotation
          JOINT RightArm
          {
            OFFSET -10.187457 -2.158868 6.662591
            CHANNELS 3 Zrotation Xrotation Yrotation
            JOINT RightForeArm
            {
              OFFSET -9.211951 -24.170208 -2.817814
              CHANNELS 3 Zrotation Xrotation Yrotation
              JOINT RightHand
              {
                OFFSET 16.883888 -17.721832 10.602467
                CHANNELS 3 Zrotation Xrotation Yrotation
                End Site
                {
                  OFFSET 0.000000 4.000000 0.000000
                }
              }
            }
          }
        }
        JOINT LeftShoulder
        {
          OFFSET 8.171416 10.992897 1.849092
          CHANNELS 3 Zrotation Xrotation Yrotation
          JOINT LeftArm
          {
            OFFSET 13.185427 -1.043952 -1.205036
            CHANNELS 3 Zrotation Xrotation Yrotation
            JOINT LeftForeArm
            {
              OFFSET 7.680183 -18.630665 -15.236044
              CHANNELS 3 Zrotation Xrotation Yrotation
              JOINT LeftHand
              {
                OFFSET -3.659779 -14.867520 17.945042
                CHANNELS 3 Zrotation Xrotation Yrotation
                End Site
                {
                  OFFSET 0.000000 4.000000 0.000000
                }
              }
            }
          }
        }
      }
    }
  }
}
MOTION
Frames: 6
Frame Time: 0.050000
0.000000 0.000000 0.000000 -0.000000 0.000000 0.000000 -0.000000 0.000000 0.000000 -0.000000 0.000000 0.000000 -0.000000 0.000000 0.000000 -0.000000 0.000000 0.000000 -0.000000 0.000000 0.000000 -0.000000 0.000000 0.000000 -0.000000 0.000000 0.000000 -0.000000 0.000000 0.000000 -0.000000 0.000000 0.000000 -0.000000 0.000000 0.000000 -0.000000 0.000000 0.000000 -0.000000 0.000000 0.000000 -0.000000 0.000000 0.000000 -0.000000 0.000000 0.000000 -0.000000 0.000000 0.000000 -0.000000 0.000000 0.000000 -0.000000 0.000000 0.000000 -0.000000 0.000000 0.000000 -0.000000 0.000000 0.000000 -0.000000 0.000000 0.000000 -0.000000 0.000000 0.000000
1.014351 0.074965 0.916963 -0.207601 0.248694 -0.068669 -0.040131 0.525118 -0.440952 0.199597 -0.051907 0.582756 -0.716701 -0.798696 -1.205911 0.761900 0.094447 1.125139 -0.605169 -0.125528 -0.493513 0.481796 0.359022 0.754274 0.060390 -1.151432 -1.590506 0.246886 0.679264 1.394310 0.441238 -1.185320 0.045985 0.040903 0.763548 -0.256852 0.159406 -0.597521 0.186818 -0.107388 0.658370 -0.375049 -0.324503 0.110719 0.470629 -0.025210 1.183478 -0.614715 0.810527 -0.249440 0.512390 -2.737400 -0.871184 -1.418713 1.505909 0.752036 1.593798 -0.088785 0.782456 -0.156233 0.082255 0.425816 0.081105 -0.481997 -1.885661 0.444068 0.068012 1.447799 -0.279479
2.284277 0.108695 1.688842 -0.585941 0.771833 -0.187293 -0.193115 0.653908 -1.087904 0.608310 -0.058375 1.460647 -1.401453 -1.202928 -2.812402 1.572500 -0.075380 2.609449 -1.207156 -0.559999 -1.105753 1.105224 0.969563 1.674456 -0.512863 -2.200986 -3.658539 1.104731 1.108520 3.233321 1.076452 -1.718573 -0.011126 0.271287 1.219047 -0.820522 0.161920 -1.025082 0.728301 0.074796 0.808376 -1.217571 -0.981210 -0.073814 1.516930 -0.045917 1.583142 -0.990223 1.900641 -0.396117 0.837454 -5.439450 -1.263980 -2.028363 2.653564 0.950503 2.429479 -0.473743 0.753239 -0.223775 0.060998 0.606217 0.368230 -0.951154 -2.379516 0.034218 0.453428 1.776567 0.104972
3.710455 0.691229 2.389431 -1.042105 1.157029 -0.343218 -0.192645 1.690217 -1.874664 0.487580 -1.738543 2.709701 -1.377103 -0.694300 -4.285973 2.196882 -0.241442 3.798376 -1.879733 -0.195125 -1.393912 1.573637 -0.027666 2.549665 -0.598388 -2.587335 -6.168696 1.746481 1.867330 5.277654 1.857029 -2.488299 -0.004744 0.571074 1.594138 -1.420658 -0.017355 -1.445013 1.368079 0.528042 0.728294 -2.331438 -1.871673 0.382537 2.758871 -0.227124 2.337909 -1.720431 3.492366 -0.427545 1.423690 -8.528228 -1.667297 -2.733242 3.901804 1.206412 3.354834 -0.607385 1.210526 -0.113636 -0.171147 0.469174 0.299512 -1.278775 -2.342954 -0.195390 0.722080 1.853361 0.412305
5.397982 1.807231 3.030326 -1.270267 1.387143 -0.417605 -0.192357 3.119501 -2.599186 0.022005 -4.671184 3.814484 -0.714512 0.733254 -5.100444 2.423942 -0.384325 4.313572 -3.163753 0.968024 -1.656117 2.397735 -2.438099 3.408261 -0.340866 -2.104185 -8.232719 2.125225 2.529721 6.822554 2.684715 -3.856239 -0.149270 0.645737 1.989063 -1.779943 -0.073998 -1.619365 1.830687 0.654706 1.366980 -3.279673 -2.621483 0.588629 3.840164 -0.698651 3.496918 -2.368685 5.342796 -1.168615 2.315965 -10.945553 -1.746841 -3.694934 4.308168 2.004466 4.301939 -0.478739 2.173335 -0.273775 -0.550761 0.003109 0.137926 -1.770916 -2.216423 0.142965 0.877121 2.136653 0.529232
7.207551 2.912050 3.638381 -1.640754 1.620583 -0.547016 -0.015060 4.931468 -3.373398 -0.434051 -8.510013 4.983586 -0.188552 2.405517 -6.052313 2.885191 -0.244714 4.944108 -4.510222 2.271139 -1.907861 3.931120 -5.187799 4.106611 -0.424370 -1.805126 -10.464890 2.277557 3.631941 8.801072 3.781623 -5.215054 -0.303872 0.848797 2.196032 -2.325599 -0.139110 -1.749505 2.482772 0.560451 2.023062 -4.160871 -3.405123 0.886626 4.941456 -1.533921 4.812899 -3.443937 6.930230 -1.752898 3.774881 -12.309500 -2.404742 -4.745333 4.010649 3.273125 5.314692 -0.361241 3.273234 -0.560115 -0.571710 -0.580063 -0.348539 -2.876983 -2.152220 0.983156 1.081420 2.559233 0.670701
